<svg xmlns="http://www.w3.org/2000/svg" xmlns:xlink="http://www.w3.org/1999/xlink" width="181.916" height="67.905" viewBox="0 0 181.916 67.905"><defs><style>.a{fill:none;}.b{fill:#161615;}.c{fill:#f33;}.d{clip-path:url(#a);}.e{fill:#171716;}</style><clipPath id="a"><rect class="a" width="181.916" height="67.905"/></clipPath></defs><path class="b" d="M0,18.89V48.951H32.888V37.212H13.42V30.628H32.888V18.89Zm0-7.05H32.888V.1H0Z" transform="translate(0 0.006)"/><path class="c" d="M63.389.1,47.264,18.927V30.673L63.586,48.951H80.152l-20.7-24.509L80.111.1Z" transform="translate(2.979 0.006)"/><g transform="translate(0 0)"><g class="d"><path class="b" d="M131.609.1h16.14Q158.126.1,164.5,5.291a24.289,24.289,0,0,1,7.336,9.985,25.2,25.2,0,0,1,1.79,9.376,23.653,23.653,0,0,1-6.084,16.14,22.274,22.274,0,0,1-9.484,6.584,33.545,33.545,0,0,1-10.879,1.575H131.609V30.726l13.42-11.963v18.7a24.57,24.57,0,0,0,6.012-.752,11.413,11.413,0,0,0,4.08-2.219,12.043,12.043,0,0,0,3.346-4.42,13.253,13.253,0,0,0,1.234-5.564,12.949,12.949,0,0,0-1.27-5.565,12.365,12.365,0,0,0-3.454-4.456,10.984,10.984,0,0,0-4.062-2.04,23.593,23.593,0,0,0-5.922-.608H131.609Z" transform="translate(8.294 0.006)"/><path class="e" d="M102.73,48.964a24.482,24.482,0,1,1,24.482-24.481A24.51,24.51,0,0,1,102.73,48.964m0-35.318a10.836,10.836,0,1,0,10.836,10.836A10.849,10.849,0,0,0,102.73,13.646" transform="translate(4.931 0)"/><rect class="c" width="9.738" height="11.738" transform="translate(40.328 0.105)"/><path class="c" d="M0,0H9.806V11.738H0Z" transform="translate(40.294 37.219)"/><path class="b" d="M.152,64.2V56.761H1.666v6.172H5.429V64.2Z" transform="translate(0.01 3.577)"/><path class="b" d="M6.124,56.723H7.561v1.028a3.561,3.561,0,0,1-.108.984,1.47,1.47,0,0,1-.406.646,2.093,2.093,0,0,1-.759.45l-.282-.593a1.215,1.215,0,0,0,.619-.393,1.183,1.183,0,0,0,.195-.685h-.7Z" transform="translate(0.379 3.574)"/><path class="b" d="M8.9,64.314v-7.5h5.557v1.268H10.41v1.662h3.763v1.263H10.41v2.041H14.6v1.262Zm1.922-7.925.706-1.528h1.61L11.729,56.39Z" transform="translate(0.561 3.457)"/><path class="b" d="M20.3,61.451l1.467.466a3.282,3.282,0,0,1-1.121,1.822,3.2,3.2,0,0,1-1.992.6A3.222,3.222,0,0,1,16.2,63.315a3.9,3.9,0,0,1-.962-2.789,4.1,4.1,0,0,1,.966-2.906,3.312,3.312,0,0,1,2.542-1.035,3.119,3.119,0,0,1,2.234.813,2.956,2.956,0,0,1,.766,1.38l-1.5.357a1.548,1.548,0,0,0-1.58-1.256,1.707,1.707,0,0,0-1.353.6,2.936,2.936,0,0,0-.518,1.938,3.143,3.143,0,0,0,.511,2.025,1.659,1.659,0,0,0,1.329.6,1.516,1.516,0,0,0,1.038-.383,2.229,2.229,0,0,0,.624-1.208" transform="translate(0.96 3.566)"/><path class="b" d="M22.222,60.5a4.792,4.792,0,0,1,.342-1.923,3.551,3.551,0,0,1,.7-1.027,2.908,2.908,0,0,1,.968-.675,4.114,4.114,0,0,1,1.616-.3A3.522,3.522,0,0,1,28.5,57.611a4.595,4.595,0,0,1,.007,5.7,3.5,3.5,0,0,1-2.638,1.024,3.527,3.527,0,0,1-2.659-1.019,3.868,3.868,0,0,1-.986-2.81m1.559-.051a2.8,2.8,0,0,0,.588,1.929,2.019,2.019,0,0,0,2.978.005,2.861,2.861,0,0,0,.58-1.956,2.816,2.816,0,0,0-.564-1.921,2.091,2.091,0,0,0-3.008.007,2.829,2.829,0,0,0-.573,1.935" transform="translate(1.401 3.566)"/><path class="b" d="M30.26,64.2V56.761h1.514v6.172h3.763V64.2Z" transform="translate(1.907 3.577)"/><path class="b" d="M36.229,64.2V56.7h5.557v1.268H37.741v1.662H41.5V60.9H37.741v2.041h4.187V64.2Z" transform="translate(2.283 3.573)"/><path class="b" d="M45.57,56.7h2.766a5.454,5.454,0,0,1,1.427.142,2.5,2.5,0,0,1,1.129.691,3.267,3.267,0,0,1,.716,1.213,5.543,5.543,0,0,1,.244,1.772,4.915,4.915,0,0,1-.23,1.6,3.3,3.3,0,0,1-.8,1.323,2.658,2.658,0,0,1-1.063.6,4.567,4.567,0,0,1-1.34.158H45.57Zm1.513,1.267v4.965h1.13a4.19,4.19,0,0,0,.915-.071,1.421,1.421,0,0,0,.611-.313,1.6,1.6,0,0,0,.4-.724,4.9,4.9,0,0,0,.153-1.372,4.493,4.493,0,0,0-.153-1.335,1.724,1.724,0,0,0-.431-.726,1.444,1.444,0,0,0-.7-.353,6.869,6.869,0,0,0-1.243-.071Z" transform="translate(2.872 3.573)"/><path class="b" d="M52.55,64.2V56.7h5.557v1.268H54.063v1.662h3.763V60.9H54.063v2.041H58.25V64.2Z" transform="translate(3.312 3.573)"/><path class="b" d="M58.779,61.767l1.472-.144a1.8,1.8,0,0,0,.54,1.09,1.633,1.633,0,0,0,1.1.348,1.682,1.682,0,0,0,1.1-.309.921.921,0,0,0,.371-.724.689.689,0,0,0-.155-.453,1.254,1.254,0,0,0-.545-.324q-.265-.092-1.211-.327a4.124,4.124,0,0,1-1.708-.741,1.951,1.951,0,0,1-.69-1.508,1.923,1.923,0,0,1,.324-1.072,2.035,2.035,0,0,1,.935-.759,3.765,3.765,0,0,1,1.475-.26,3.162,3.162,0,0,1,2.124.619,2.186,2.186,0,0,1,.749,1.652l-1.514.066a1.285,1.285,0,0,0-.417-.831,1.53,1.53,0,0,0-.959-.253,1.728,1.728,0,0,0-1.032.271.547.547,0,0,0-.24.466.576.576,0,0,0,.225.455,4.013,4.013,0,0,0,1.39.5,7.33,7.33,0,0,1,1.633.538,2.113,2.113,0,0,1,.829.762,2.235,2.235,0,0,1,.3,1.194,2.2,2.2,0,0,1-.358,1.207,2.14,2.14,0,0,1-1.012.837,4.255,4.255,0,0,1-1.631.273,3.249,3.249,0,0,1-2.183-.657,2.858,2.858,0,0,1-.91-1.915" transform="translate(3.704 3.566)"/><path class="b" d="M68.348,64.2V56.7h2.265l1.36,5.113L73.318,56.7h2.271v7.5H74.182V58.3l-1.488,5.9H71.237l-1.483-5.9v5.9Z" transform="translate(4.308 3.573)"/><path class="b" d="M76.622,64.314v-7.5h5.557v1.268H78.135v1.662H81.9v1.263H78.135v2.041h4.187v1.262Zm1.922-7.925.706-1.528h1.61L79.454,56.39Z" transform="translate(4.829 3.457)"/><path class="b" d="M84.832,64.2V57.972H82.608V56.7h5.956v1.268H86.346V64.2Z" transform="translate(5.206 3.573)"/><rect class="b" width="1.514" height="7.495" transform="translate(94.711 60.277)"/><path class="b" d="M91.867,64.2V56.7h5.557v1.268H93.379v1.662h3.763V60.9H93.379v2.041h4.187V64.2Z" transform="translate(5.79 3.573)"/><path class="b" d="M98.461,64.2V56.7h3.185a5.475,5.475,0,0,1,1.745.2,1.726,1.726,0,0,1,.872.719,2.161,2.161,0,0,1,.327,1.181,2,2,0,0,1-.5,1.394,2.384,2.384,0,0,1-1.482.693,3.515,3.515,0,0,1,.81.628,8.657,8.657,0,0,1,.862,1.216L105.2,64.2h-1.81L102.3,62.568a10.493,10.493,0,0,0-.8-1.1,1.154,1.154,0,0,0-.455-.313,2.49,2.49,0,0,0-.761-.084h-.307V64.2Zm1.513-4.325h1.119a5.785,5.785,0,0,0,1.361-.091.816.816,0,0,0,.424-.318.973.973,0,0,0,.153-.561.9.9,0,0,0-.2-.611.921.921,0,0,0-.57-.294c-.122-.016-.491-.026-1.1-.026H99.974Z" transform="translate(6.205 3.573)"/><path class="b" d="M105.208,61.767l1.472-.144a1.8,1.8,0,0,0,.54,1.09,1.633,1.633,0,0,0,1.1.348,1.682,1.682,0,0,0,1.1-.309.921.921,0,0,0,.371-.724.689.689,0,0,0-.155-.453,1.254,1.254,0,0,0-.545-.324q-.265-.092-1.211-.327a4.124,4.124,0,0,1-1.708-.741,1.951,1.951,0,0,1-.69-1.508A1.923,1.923,0,0,1,105.8,57.6a2.035,2.035,0,0,1,.935-.759,3.765,3.765,0,0,1,1.475-.26,3.162,3.162,0,0,1,2.124.619,2.186,2.186,0,0,1,.749,1.652l-1.514.066a1.286,1.286,0,0,0-.417-.831,1.53,1.53,0,0,0-.959-.253,1.728,1.728,0,0,0-1.032.271.547.547,0,0,0-.24.466.576.576,0,0,0,.225.455,4.013,4.013,0,0,0,1.39.5,7.33,7.33,0,0,1,1.633.538,2.113,2.113,0,0,1,.829.762,2.235,2.235,0,0,1,.3,1.194,2.2,2.2,0,0,1-.358,1.207,2.14,2.14,0,0,1-1.012.837,4.255,4.255,0,0,1-1.631.273,3.249,3.249,0,0,1-2.183-.657,2.858,2.858,0,0,1-.91-1.915" transform="translate(6.631 3.566)"/><path class="b" d="M114.891,56.7h2.766a5.454,5.454,0,0,1,1.427.142,2.5,2.5,0,0,1,1.129.691,3.267,3.267,0,0,1,.716,1.213,5.543,5.543,0,0,1,.244,1.772,4.914,4.914,0,0,1-.23,1.6,3.3,3.3,0,0,1-.8,1.323,2.658,2.658,0,0,1-1.063.6,4.567,4.567,0,0,1-1.34.158h-2.847Zm1.513,1.267v4.965h1.13a4.19,4.19,0,0,0,.915-.071,1.421,1.421,0,0,0,.611-.313,1.6,1.6,0,0,0,.4-.724,4.9,4.9,0,0,0,.153-1.372,4.493,4.493,0,0,0-.153-1.335,1.724,1.724,0,0,0-.431-.726,1.444,1.444,0,0,0-.7-.353,6.869,6.869,0,0,0-1.243-.071Z" transform="translate(7.241 3.573)"/><path class="b" d="M121.969,56.7h1.514v4.059a8.312,8.312,0,0,0,.056,1.253,1.212,1.212,0,0,0,.462.739,1.61,1.61,0,0,0,1,.279,1.52,1.52,0,0,0,.972-.264,1.035,1.035,0,0,0,.393-.646,8.381,8.381,0,0,0,.067-1.273V56.7h1.514V60.64a10.1,10.1,0,0,1-.123,1.907,2.1,2.1,0,0,1-.453.941,2.274,2.274,0,0,1-.882.611,3.824,3.824,0,0,1-1.44.227,4.144,4.144,0,0,1-1.63-.249,2.33,2.33,0,0,1-.876-.643,2.051,2.051,0,0,1-.424-.831,9.019,9.019,0,0,1-.149-1.9Z" transform="translate(7.687 3.573)"/><path class="b" d="M131.815,56.7h2.766a5.454,5.454,0,0,1,1.427.142,2.5,2.5,0,0,1,1.129.691,3.267,3.267,0,0,1,.716,1.213,5.542,5.542,0,0,1,.245,1.772,4.915,4.915,0,0,1-.23,1.6,3.3,3.3,0,0,1-.8,1.323,2.657,2.657,0,0,1-1.063.6,4.567,4.567,0,0,1-1.34.158h-2.847Zm1.513,1.267v4.965h1.13a4.191,4.191,0,0,0,.915-.071,1.421,1.421,0,0,0,.611-.313,1.6,1.6,0,0,0,.4-.724,4.9,4.9,0,0,0,.153-1.372,4.493,4.493,0,0,0-.153-1.335,1.724,1.724,0,0,0-.431-.726,1.444,1.444,0,0,0-.7-.353,6.869,6.869,0,0,0-1.243-.071Z" transform="translate(8.307 3.573)"/><rect class="b" width="1.514" height="7.495" transform="translate(147.611 60.277)"/><path class="b" d="M145.132,61.451V60.189h3.262v2.985a4.108,4.108,0,0,1-1.379.811,5,5,0,0,1-1.827.35,4.091,4.091,0,0,1-2.049-.493,3.141,3.141,0,0,1-1.315-1.411,4.575,4.575,0,0,1-.439-2,4.3,4.3,0,0,1,.491-2.08,3.3,3.3,0,0,1,1.436-1.4,3.891,3.891,0,0,1,1.794-.372,3.571,3.571,0,0,1,2.18.586,2.644,2.644,0,0,1,1.011,1.618l-1.5.281a1.589,1.589,0,0,0-.6-.872,1.8,1.8,0,0,0-1.092-.319,2.052,2.052,0,0,0-1.578.628,2.649,2.649,0,0,0-.585,1.866,2.928,2.928,0,0,0,.593,2,1.978,1.978,0,0,0,1.554.668,2.609,2.609,0,0,0,.954-.187,3.2,3.2,0,0,0,.82-.452v-.951Z" transform="translate(8.911 3.566)"/><rect class="b" width="1.514" height="7.495" transform="translate(158.623 60.277)"/><path class="b" d="M153.708,64.2V57.972h-2.224V56.7h5.956v1.268h-2.219V64.2Z" transform="translate(9.547 3.573)"/><path class="b" d="M164.731,64.2h-1.646l-.655-1.7h-3l-.619,1.7H157.21l2.919-7.5h1.6Zm-2.786-2.965-1.033-2.782L159.9,61.234Z" transform="translate(9.908 3.573)"/><path class="b" d="M165.078,64.2V56.761h1.514v6.172h3.763V64.2Z" transform="translate(10.404 3.577)"/></g></g></svg>